<svg width="16" height="16" viewBox="0 0 16 16" fill="none" xmlns="http://www.w3.org/2000/svg">
    <mask id="mask0_11_219" style="mask-type:alpha" maskUnits="userSpaceOnUse" x="0" y="0" width="16" height="16">
        <rect width="16" height="16" fill="#1A43D3"/>
    </mask>
    <g mask="url(#mask0_11_219)">
        <path d="M3.33348 12.6666H4.1745L10.9989 5.84222L10.1579 5.0012L3.33348 11.8256V12.6666ZM2.3335 13.6666V11.4102L11.1271 2.62047C11.2279 2.5289 11.3392 2.45814 11.461 2.4082C11.5828 2.35825 11.7106 2.33328 11.8442 2.33328C11.9779 2.33328 12.1074 2.35701 12.2327 2.40445C12.358 2.45188 12.4689 2.5273 12.5655 2.63072L13.3796 3.45507C13.483 3.55164 13.5568 3.66278 13.6008 3.78847C13.6448 3.91414 13.6668 4.03982 13.6668 4.1655C13.6668 4.29956 13.6439 4.42749 13.5981 4.5493C13.5523 4.67112 13.4795 4.78244 13.3796 4.88325L4.58988 13.6666H2.3335ZM10.571 5.42908L10.1579 5.0012L10.9989 5.84222L10.571 5.42908Z"
              fill="#1A43D3"/>
    </g>
</svg>
